<svg width="32" height="32" viewBox="0 0 32 32" fill="none" xmlns="http://www.w3.org/2000/svg">
  <path fill-rule="evenodd" clip-rule="evenodd" d="M1.055 1.055a2.04 2.04 0 0 1 2.884 0L16 13.115l12.061-12.06a2.04 2.04 0 0 1 2.884 2.884L18.886 16l12.06 12.061a2.04 2.04 0 0 1-2.884 2.884L16 18.886 3.939 30.944a2.04 2.04 0 1 1-2.884-2.884L13.115 16 1.056 3.939a2.04 2.04 0 0 1 0-2.884Zm1.59 1.293a.211.211 0 0 0-.297.298L15.702 16 2.348 29.354a.211.211 0 0 0 .298.299L16 16.297l13.354 13.355a.211.211 0 0 0 .299-.299L16.297 16 29.653 2.646a.211.211 0 1 0-.299-.298L16 15.702 2.646 2.348Z" fill="#000"/>
  <path fill-rule="evenodd" clip-rule="evenodd" d="M.731.731a2.497 2.497 0 0 1 3.531 0L16 12.47 27.738.731a2.497 2.497 0 1 1 3.53 3.531L19.532 16l11.738 11.738a2.496 2.496 0 1 1-3.531 3.53L16 19.532 4.262 31.269a2.497 2.497 0 1 1-3.53-3.531L12.468 16 .731 4.262a2.497 2.497 0 0 1 0-3.53Zm2.885.647a1.582 1.582 0 1 0-2.238 2.238L13.762 16 1.378 28.384a1.582 1.582 0 1 0 2.238 2.238L16 18.238l12.384 12.384a1.582 1.582 0 1 0 2.238-2.238L18.238 16 30.622 3.616a1.582 1.582 0 1 0-2.238-2.238L16 13.762 3.616 1.378ZM16 15.055 2.97 2.025a.668.668 0 0 0-.946.944L15.055 16 2.025 29.03a.668.668 0 1 0 .944.946L16 16.945l13.03 13.03a.668.668 0 1 0 .946-.944L16.945 16l13.03-13.03a.668.668 0 1 0-.944-.946L16 15.055ZM29.677 2.671Zm-.348-.348Z" fill="#000"/>
</svg>
