<svg width="60" height="60" viewBox="0 0 60 60" fill="none" xmlns="http://www.w3.org/2000/svg">
  <circle cx="30" cy="30" r="30" fill="#EC1313"/>
  <path fill-rule="evenodd" clip-rule="evenodd" d="M17.32 17.32a.998.998 0 0 1 1.41 0L30 28.588l11.27-11.27a.998.998 0 0 1 1.411 1.412L31.411 30l11.27 11.268a.998.998 0 0 1-1.411 1.412L30 31.41l-11.27 11.27a.998.998 0 0 1-1.41-1.411L28.59 30 17.32 18.73a.998.998 0 0 1 0-1.41Z" fill="#fff"/>
  <path fill-rule="evenodd" clip-rule="evenodd" d="M16.746 16.746a1.809 1.809 0 0 1 2.558 0L30 27.442l10.696-10.696a1.809 1.809 0 0 1 2.558 2.558L32.558 30l10.696 10.696a1.809 1.809 0 0 1-2.558 2.558L30 32.558 19.304 43.254a1.809 1.809 0 1 1-2.558-2.558L27.442 30 16.746 19.304a1.809 1.809 0 0 1 0-2.558Zm1.411 1.147a.187.187 0 1 0-.265.264L29.735 30 17.892 41.843a.187.187 0 1 0 .265.265L30 30.265l11.843 11.843a.187.187 0 1 0 .264-.265L30.264 30l11.843-11.842a.187.187 0 1 0-.264-.265L30 29.736 18.157 17.893Z" fill="#fff"/>
  <path fill-rule="evenodd" clip-rule="evenodd" d="M16.46 16.46a2.214 2.214 0 0 1 3.13 0L30 26.868l10.41-10.41a2.214 2.214 0 0 1 3.13 3.132L33.131 30l10.41 10.409a2.214 2.214 0 0 1-3.132 3.13L30 33.133 19.59 43.54a2.214 2.214 0 1 1-3.13-3.131L26.868 30l-10.41-10.41a2.214 2.214 0 0 1 0-3.13Zm2.557.573a1.403 1.403 0 1 0-1.985 1.984L28.015 30 17.032 40.983a1.403 1.403 0 1 0 1.985 1.985L30 31.985l10.983 10.983a1.403 1.403 0 0 0 1.984-1.985L31.984 30l10.983-10.982a1.403 1.403 0 0 0-1.984-1.985L30 28.016 19.017 17.033ZM30 29.163 18.444 17.605a.593.593 0 0 0-.838.838L29.162 30 17.606 41.556a.592.592 0 1 0 .838.838L30 30.838l11.556 11.556a.593.593 0 0 0 .838-.838L30.838 30l11.556-11.556a.592.592 0 1 0-.838-.838L30 29.162ZM42.129 18.18Zm-.309-.309Z" fill="#fff"/>
</svg>
